<mxfile host="app.diagrams.net" modified="2021-06-17T16:38:25.174Z" agent="5.0 (Windows NT 10.0; Win64; x64) AppleWebKit/537.36 (KHTML, like Gecko) Chrome/91.0.4472.101 Safari/537.36" etag="FnFH9oWXxHvRr0Wt6D7A" version="14.7.10" type="github" pages="5">
  <diagram id="whum5KUoKy-AiShSeKjw" name="microservices_vs_monoliths">
    <mxGraphModel dx="2062" dy="1154" grid="1" gridSize="10" guides="1" tooltips="1" connect="1" arrows="1" fold="1" page="1" pageScale="1" pageWidth="1169" pageHeight="827" math="0" shadow="0">
      <root>
        <mxCell id="0" />
        <mxCell id="1" parent="0" />
        <mxCell id="ZGd-4eqSVzOP_96qWRgu-4" value="" style="rounded=0;whiteSpace=wrap;html=1;" parent="1" vertex="1">
          <mxGeometry x="190" y="260" width="150" height="180" as="geometry" />
        </mxCell>
        <mxCell id="ZGd-4eqSVzOP_96qWRgu-12" style="edgeStyle=orthogonalEdgeStyle;rounded=0;orthogonalLoop=1;jettySize=auto;html=1;entryX=0.5;entryY=0;entryDx=0;entryDy=0;startArrow=classic;startFill=1;" parent="1" source="ZGd-4eqSVzOP_96qWRgu-1" target="ZGd-4eqSVzOP_96qWRgu-2" edge="1">
          <mxGeometry relative="1" as="geometry" />
        </mxCell>
        <mxCell id="ZGd-4eqSVzOP_96qWRgu-1" value="&lt;font face=&quot;Georgia&quot; style=&quot;font-size: 11px&quot;&gt;Front-end (JavaScript)&lt;/font&gt;" style="rounded=0;whiteSpace=wrap;html=1;fillColor=#f5f5f5;strokeColor=#666666;fontColor=#333333;" parent="1" vertex="1">
          <mxGeometry x="200" y="270" width="130" height="40" as="geometry" />
        </mxCell>
        <mxCell id="ZGd-4eqSVzOP_96qWRgu-13" style="edgeStyle=orthogonalEdgeStyle;rounded=0;orthogonalLoop=1;jettySize=auto;html=1;entryX=0.5;entryY=0;entryDx=0;entryDy=0;startArrow=classic;startFill=1;" parent="1" source="ZGd-4eqSVzOP_96qWRgu-2" target="ZGd-4eqSVzOP_96qWRgu-3" edge="1">
          <mxGeometry relative="1" as="geometry" />
        </mxCell>
        <mxCell id="ZGd-4eqSVzOP_96qWRgu-2" value="&lt;font face=&quot;Georgia&quot; style=&quot;font-size: 11px&quot;&gt;Business logic (Java)&lt;/font&gt;" style="rounded=0;whiteSpace=wrap;html=1;fillColor=#dae8fc;strokeColor=#6c8ebf;" parent="1" vertex="1">
          <mxGeometry x="200" y="330" width="130" height="40" as="geometry" />
        </mxCell>
        <mxCell id="ZGd-4eqSVzOP_96qWRgu-3" value="&lt;font face=&quot;Georgia&quot; style=&quot;font-size: 11px&quot;&gt;Database (MySQL)&lt;/font&gt;" style="rounded=0;whiteSpace=wrap;html=1;fillColor=#d5e8d4;strokeColor=#82b366;" parent="1" vertex="1">
          <mxGeometry x="200" y="390" width="130" height="40" as="geometry" />
        </mxCell>
        <mxCell id="ZGd-4eqSVzOP_96qWRgu-5" value="&lt;font face=&quot;Georgia&quot;&gt;Monolith Architecture&lt;/font&gt;" style="text;html=1;strokeColor=none;fillColor=none;align=left;verticalAlign=middle;whiteSpace=wrap;rounded=0;" parent="1" vertex="1">
          <mxGeometry x="190" y="240" width="160" height="20" as="geometry" />
        </mxCell>
        <mxCell id="ZGd-4eqSVzOP_96qWRgu-6" value="" style="rounded=0;whiteSpace=wrap;html=1;" parent="1" vertex="1">
          <mxGeometry x="360" y="260" width="290" height="230" as="geometry" />
        </mxCell>
        <mxCell id="ZGd-4eqSVzOP_96qWRgu-7" value="&lt;font face=&quot;Georgia&quot; style=&quot;font-size: 11px&quot;&gt;Front-end (JavaScript)&lt;/font&gt;" style="rounded=0;whiteSpace=wrap;html=1;fillColor=#f5f5f5;strokeColor=#666666;fontColor=#333333;" parent="1" vertex="1">
          <mxGeometry x="440" y="270" width="130" height="40" as="geometry" />
        </mxCell>
        <mxCell id="ZGd-4eqSVzOP_96qWRgu-15" style="edgeStyle=none;rounded=0;orthogonalLoop=1;jettySize=auto;html=1;entryX=0.5;entryY=0;entryDx=0;entryDy=0;startArrow=classic;startFill=1;" parent="1" source="ZGd-4eqSVzOP_96qWRgu-8" target="ZGd-4eqSVzOP_96qWRgu-9" edge="1">
          <mxGeometry relative="1" as="geometry" />
        </mxCell>
        <mxCell id="ZGd-4eqSVzOP_96qWRgu-8" value="&lt;font face=&quot;Georgia&quot; style=&quot;font-size: 11px&quot;&gt;Shopping cart&lt;br&gt;business logic (Java)&lt;/font&gt;" style="rounded=0;whiteSpace=wrap;html=1;fillColor=#dae8fc;strokeColor=#6c8ebf;" parent="1" vertex="1">
          <mxGeometry x="370" y="335" width="80" height="50" as="geometry" />
        </mxCell>
        <mxCell id="ZGd-4eqSVzOP_96qWRgu-9" value="&lt;font face=&quot;Georgia&quot; style=&quot;font-size: 11px&quot;&gt;Shopping cart database (PostgreSQL)&lt;/font&gt;" style="rounded=0;whiteSpace=wrap;html=1;fillColor=#d5e8d4;strokeColor=#82b366;" parent="1" vertex="1">
          <mxGeometry x="370" y="406" width="80" height="50" as="geometry" />
        </mxCell>
        <mxCell id="ZGd-4eqSVzOP_96qWRgu-10" value="&lt;font face=&quot;Georgia&quot;&gt;Microservice Architecture&lt;/font&gt;" style="text;html=1;strokeColor=none;fillColor=none;align=left;verticalAlign=middle;whiteSpace=wrap;rounded=0;" parent="1" vertex="1">
          <mxGeometry x="360" y="240" width="200" height="20" as="geometry" />
        </mxCell>
        <mxCell id="ZGd-4eqSVzOP_96qWRgu-20" style="edgeStyle=none;rounded=0;orthogonalLoop=1;jettySize=auto;html=1;exitX=0.5;exitY=1;exitDx=0;exitDy=0;entryX=0.5;entryY=0;entryDx=0;entryDy=0;startArrow=classic;startFill=1;" parent="1" source="ZGd-4eqSVzOP_96qWRgu-16" target="ZGd-4eqSVzOP_96qWRgu-17" edge="1">
          <mxGeometry relative="1" as="geometry" />
        </mxCell>
        <mxCell id="ZGd-4eqSVzOP_96qWRgu-26" style="edgeStyle=none;rounded=0;orthogonalLoop=1;jettySize=auto;html=1;exitX=0.5;exitY=0;exitDx=0;exitDy=0;entryX=0.5;entryY=1;entryDx=0;entryDy=0;startArrow=classic;startFill=1;" parent="1" source="ZGd-4eqSVzOP_96qWRgu-16" target="ZGd-4eqSVzOP_96qWRgu-7" edge="1">
          <mxGeometry relative="1" as="geometry" />
        </mxCell>
        <mxCell id="ZGd-4eqSVzOP_96qWRgu-16" value="&lt;font face=&quot;Georgia&quot;&gt;&lt;span style=&quot;font-size: 11px&quot;&gt;Catalogue business logic (Go)&lt;/span&gt;&lt;/font&gt;" style="rounded=0;whiteSpace=wrap;html=1;fillColor=#dae8fc;strokeColor=#6c8ebf;" parent="1" vertex="1">
          <mxGeometry x="465" y="335" width="80" height="50" as="geometry" />
        </mxCell>
        <mxCell id="ZGd-4eqSVzOP_96qWRgu-17" value="&lt;font face=&quot;Georgia&quot; style=&quot;font-size: 11px&quot;&gt;Catalogue database (MongoDB)&lt;/font&gt;" style="rounded=0;whiteSpace=wrap;html=1;fillColor=#d5e8d4;strokeColor=#82b366;" parent="1" vertex="1">
          <mxGeometry x="465" y="406" width="80" height="50" as="geometry" />
        </mxCell>
        <mxCell id="ZGd-4eqSVzOP_96qWRgu-24" style="edgeStyle=none;rounded=0;orthogonalLoop=1;jettySize=auto;html=1;exitX=0.5;exitY=1;exitDx=0;exitDy=0;entryX=0.5;entryY=0;entryDx=0;entryDy=0;startArrow=classic;startFill=1;" parent="1" source="ZGd-4eqSVzOP_96qWRgu-21" target="ZGd-4eqSVzOP_96qWRgu-22" edge="1">
          <mxGeometry relative="1" as="geometry" />
        </mxCell>
        <mxCell id="ZGd-4eqSVzOP_96qWRgu-21" value="&lt;font face=&quot;Georgia&quot;&gt;&lt;span style=&quot;font-size: 11px&quot;&gt;Authentication middleware (Go)&lt;/span&gt;&lt;/font&gt;" style="rounded=0;whiteSpace=wrap;html=1;fillColor=#dae8fc;strokeColor=#6c8ebf;" parent="1" vertex="1">
          <mxGeometry x="560" y="335" width="80" height="50" as="geometry" />
        </mxCell>
        <mxCell id="ZGd-4eqSVzOP_96qWRgu-29" style="edgeStyle=orthogonalEdgeStyle;rounded=0;orthogonalLoop=1;jettySize=auto;html=1;exitX=0.5;exitY=1;exitDx=0;exitDy=0;entryX=0.5;entryY=1;entryDx=0;entryDy=0;startArrow=none;startFill=0;" parent="1" source="ZGd-4eqSVzOP_96qWRgu-22" target="ZGd-4eqSVzOP_96qWRgu-9" edge="1">
          <mxGeometry relative="1" as="geometry" />
        </mxCell>
        <mxCell id="ZGd-4eqSVzOP_96qWRgu-31" style="edgeStyle=orthogonalEdgeStyle;rounded=0;orthogonalLoop=1;jettySize=auto;html=1;exitX=0.5;exitY=1;exitDx=0;exitDy=0;entryX=0.5;entryY=1;entryDx=0;entryDy=0;startArrow=none;startFill=0;" parent="1" source="ZGd-4eqSVzOP_96qWRgu-22" target="ZGd-4eqSVzOP_96qWRgu-17" edge="1">
          <mxGeometry relative="1" as="geometry" />
        </mxCell>
        <mxCell id="ZGd-4eqSVzOP_96qWRgu-22" value="&lt;font face=&quot;Georgia&quot;&gt;&lt;span style=&quot;font-size: 11px&quot;&gt;Administration business logic (Kotlin)&lt;/span&gt;&lt;/font&gt;" style="rounded=0;whiteSpace=wrap;html=1;fillColor=#dae8fc;strokeColor=#6c8ebf;" parent="1" vertex="1">
          <mxGeometry x="560" y="406" width="80" height="50" as="geometry" />
        </mxCell>
        <mxCell id="ZGd-4eqSVzOP_96qWRgu-14" style="rounded=0;orthogonalLoop=1;jettySize=auto;html=1;entryX=0.5;entryY=0;entryDx=0;entryDy=0;startArrow=classic;startFill=1;exitX=0.5;exitY=1;exitDx=0;exitDy=0;" parent="1" source="ZGd-4eqSVzOP_96qWRgu-7" target="ZGd-4eqSVzOP_96qWRgu-8" edge="1">
          <mxGeometry relative="1" as="geometry" />
        </mxCell>
        <mxCell id="ZGd-4eqSVzOP_96qWRgu-23" style="edgeStyle=none;rounded=0;orthogonalLoop=1;jettySize=auto;html=1;exitX=0.5;exitY=1;exitDx=0;exitDy=0;entryX=0.5;entryY=0;entryDx=0;entryDy=0;startArrow=classic;startFill=1;" parent="1" source="ZGd-4eqSVzOP_96qWRgu-7" target="ZGd-4eqSVzOP_96qWRgu-21" edge="1">
          <mxGeometry relative="1" as="geometry" />
        </mxCell>
      </root>
    </mxGraphModel>
  </diagram>
  <diagram id="KHqbFV0P3qfctqK0ABaH" name="kubernetes">
    <mxGraphModel dx="2062" dy="1154" grid="1" gridSize="10" guides="1" tooltips="1" connect="1" arrows="1" fold="1" page="1" pageScale="1" pageWidth="827" pageHeight="1169" math="0" shadow="0">
      <root>
        <mxCell id="H5iH1nIsgHst9_0Ml_5E-0" />
        <mxCell id="H5iH1nIsgHst9_0Ml_5E-1" parent="H5iH1nIsgHst9_0Ml_5E-0" />
        <mxCell id="Hjyom_inOhjRc1cQ-QSt-0" value="" style="rounded=0;whiteSpace=wrap;html=1;" parent="H5iH1nIsgHst9_0Ml_5E-1" vertex="1">
          <mxGeometry x="360" y="260" width="170" height="230" as="geometry" />
        </mxCell>
        <mxCell id="Hjyom_inOhjRc1cQ-QSt-5" value="&lt;font face=&quot;Georgia&quot;&gt;Kubernetes Cluster&lt;/font&gt;" style="text;html=1;strokeColor=none;fillColor=none;align=left;verticalAlign=middle;whiteSpace=wrap;rounded=0;" parent="H5iH1nIsgHst9_0Ml_5E-1" vertex="1">
          <mxGeometry x="357" y="243" width="200" height="20" as="geometry" />
        </mxCell>
        <mxCell id="Hjyom_inOhjRc1cQ-QSt-23" value="" style="group" parent="H5iH1nIsgHst9_0Ml_5E-1" vertex="1" connectable="0">
          <mxGeometry x="370" y="266" width="72" height="87" as="geometry" />
        </mxCell>
        <mxCell id="Hjyom_inOhjRc1cQ-QSt-17" value="" style="rounded=0;whiteSpace=wrap;html=1;" parent="Hjyom_inOhjRc1cQ-QSt-23" vertex="1">
          <mxGeometry x="2" y="17" width="70" height="70" as="geometry" />
        </mxCell>
        <mxCell id="Hjyom_inOhjRc1cQ-QSt-18" value="&lt;font style=&quot;font-size: 11px&quot; face=&quot;Georgia&quot;&gt;User Service&lt;/font&gt;" style="text;html=1;strokeColor=none;fillColor=none;align=left;verticalAlign=middle;whiteSpace=wrap;rounded=0;" parent="Hjyom_inOhjRc1cQ-QSt-23" vertex="1">
          <mxGeometry width="70" height="20" as="geometry" />
        </mxCell>
        <mxCell id="Hjyom_inOhjRc1cQ-QSt-19" value="&lt;font face=&quot;Georgia&quot;&gt;Pod&lt;/font&gt;" style="rounded=0;whiteSpace=wrap;html=1;" parent="Hjyom_inOhjRc1cQ-QSt-23" vertex="1">
          <mxGeometry x="22" y="23" width="40" height="40" as="geometry" />
        </mxCell>
        <mxCell id="Hjyom_inOhjRc1cQ-QSt-21" value="&lt;font face=&quot;Georgia&quot;&gt;Pod&lt;/font&gt;" style="rounded=0;whiteSpace=wrap;html=1;" parent="Hjyom_inOhjRc1cQ-QSt-23" vertex="1">
          <mxGeometry x="16" y="30" width="40" height="40" as="geometry" />
        </mxCell>
        <mxCell id="Hjyom_inOhjRc1cQ-QSt-22" value="&lt;font face=&quot;Georgia&quot;&gt;Pod&lt;/font&gt;" style="rounded=0;whiteSpace=wrap;html=1;" parent="Hjyom_inOhjRc1cQ-QSt-23" vertex="1">
          <mxGeometry x="8" y="40" width="40" height="40" as="geometry" />
        </mxCell>
        <mxCell id="Hjyom_inOhjRc1cQ-QSt-24" value="" style="group" parent="H5iH1nIsgHst9_0Ml_5E-1" vertex="1" connectable="0">
          <mxGeometry x="450" y="266" width="72" height="87" as="geometry" />
        </mxCell>
        <mxCell id="Hjyom_inOhjRc1cQ-QSt-25" value="" style="rounded=0;whiteSpace=wrap;html=1;" parent="Hjyom_inOhjRc1cQ-QSt-24" vertex="1">
          <mxGeometry x="2" y="17" width="70" height="70" as="geometry" />
        </mxCell>
        <mxCell id="Hjyom_inOhjRc1cQ-QSt-26" value="&lt;font style=&quot;font-size: 11px&quot; face=&quot;Georgia&quot;&gt;Cart Service&lt;/font&gt;" style="text;html=1;strokeColor=none;fillColor=none;align=left;verticalAlign=middle;whiteSpace=wrap;rounded=0;" parent="Hjyom_inOhjRc1cQ-QSt-24" vertex="1">
          <mxGeometry width="70" height="20" as="geometry" />
        </mxCell>
        <mxCell id="Hjyom_inOhjRc1cQ-QSt-27" value="&lt;font face=&quot;Georgia&quot;&gt;Pod&lt;/font&gt;" style="rounded=0;whiteSpace=wrap;html=1;" parent="Hjyom_inOhjRc1cQ-QSt-24" vertex="1">
          <mxGeometry x="22" y="23" width="40" height="40" as="geometry" />
        </mxCell>
        <mxCell id="Hjyom_inOhjRc1cQ-QSt-28" value="&lt;font face=&quot;Georgia&quot;&gt;Pod&lt;/font&gt;" style="rounded=0;whiteSpace=wrap;html=1;" parent="Hjyom_inOhjRc1cQ-QSt-24" vertex="1">
          <mxGeometry x="16" y="30" width="40" height="40" as="geometry" />
        </mxCell>
        <mxCell id="Hjyom_inOhjRc1cQ-QSt-29" value="&lt;font face=&quot;Georgia&quot;&gt;Pod&lt;/font&gt;" style="rounded=0;whiteSpace=wrap;html=1;" parent="Hjyom_inOhjRc1cQ-QSt-24" vertex="1">
          <mxGeometry x="8" y="40" width="40" height="40" as="geometry" />
        </mxCell>
        <mxCell id="Hjyom_inOhjRc1cQ-QSt-31" value="" style="group" parent="H5iH1nIsgHst9_0Ml_5E-1" vertex="1" connectable="0">
          <mxGeometry x="370" y="370" width="72" height="87" as="geometry" />
        </mxCell>
        <mxCell id="Hjyom_inOhjRc1cQ-QSt-32" value="" style="rounded=0;whiteSpace=wrap;html=1;" parent="Hjyom_inOhjRc1cQ-QSt-31" vertex="1">
          <mxGeometry x="2" y="17" width="70" height="70" as="geometry" />
        </mxCell>
        <mxCell id="Hjyom_inOhjRc1cQ-QSt-33" value="&lt;font style=&quot;font-size: 11px&quot; face=&quot;Georgia&quot;&gt;Order Service&lt;/font&gt;" style="text;html=1;strokeColor=none;fillColor=none;align=left;verticalAlign=middle;whiteSpace=wrap;rounded=0;" parent="Hjyom_inOhjRc1cQ-QSt-31" vertex="1">
          <mxGeometry width="70" height="20" as="geometry" />
        </mxCell>
        <mxCell id="Hjyom_inOhjRc1cQ-QSt-34" value="&lt;font face=&quot;Georgia&quot;&gt;Pod&lt;/font&gt;" style="rounded=0;whiteSpace=wrap;html=1;" parent="Hjyom_inOhjRc1cQ-QSt-31" vertex="1">
          <mxGeometry x="22" y="23" width="40" height="40" as="geometry" />
        </mxCell>
        <mxCell id="Hjyom_inOhjRc1cQ-QSt-35" value="&lt;font face=&quot;Georgia&quot;&gt;Pod&lt;/font&gt;" style="rounded=0;whiteSpace=wrap;html=1;" parent="Hjyom_inOhjRc1cQ-QSt-31" vertex="1">
          <mxGeometry x="16" y="30" width="40" height="40" as="geometry" />
        </mxCell>
        <mxCell id="Hjyom_inOhjRc1cQ-QSt-36" value="&lt;font face=&quot;Georgia&quot;&gt;Pod&lt;/font&gt;" style="rounded=0;whiteSpace=wrap;html=1;" parent="Hjyom_inOhjRc1cQ-QSt-31" vertex="1">
          <mxGeometry x="8" y="40" width="40" height="40" as="geometry" />
        </mxCell>
        <mxCell id="Hjyom_inOhjRc1cQ-QSt-38" value="" style="group" parent="H5iH1nIsgHst9_0Ml_5E-1" vertex="1" connectable="0">
          <mxGeometry x="450" y="370" width="72" height="87" as="geometry" />
        </mxCell>
        <mxCell id="Hjyom_inOhjRc1cQ-QSt-39" value="" style="rounded=0;whiteSpace=wrap;html=1;" parent="Hjyom_inOhjRc1cQ-QSt-38" vertex="1">
          <mxGeometry x="2" y="17" width="70" height="70" as="geometry" />
        </mxCell>
        <mxCell id="Hjyom_inOhjRc1cQ-QSt-40" value="&lt;font style=&quot;font-size: 11px&quot; face=&quot;Georgia&quot;&gt;DB Service&lt;/font&gt;" style="text;html=1;strokeColor=none;fillColor=none;align=left;verticalAlign=middle;whiteSpace=wrap;rounded=0;" parent="Hjyom_inOhjRc1cQ-QSt-38" vertex="1">
          <mxGeometry width="70" height="20" as="geometry" />
        </mxCell>
        <mxCell id="Hjyom_inOhjRc1cQ-QSt-41" value="&lt;font face=&quot;Georgia&quot;&gt;Pod&lt;/font&gt;" style="rounded=0;whiteSpace=wrap;html=1;" parent="Hjyom_inOhjRc1cQ-QSt-38" vertex="1">
          <mxGeometry x="22" y="23" width="40" height="40" as="geometry" />
        </mxCell>
        <mxCell id="Hjyom_inOhjRc1cQ-QSt-42" value="&lt;font face=&quot;Georgia&quot;&gt;Pod&lt;/font&gt;" style="rounded=0;whiteSpace=wrap;html=1;" parent="Hjyom_inOhjRc1cQ-QSt-38" vertex="1">
          <mxGeometry x="16" y="30" width="40" height="40" as="geometry" />
        </mxCell>
        <mxCell id="Hjyom_inOhjRc1cQ-QSt-43" value="&lt;font face=&quot;Georgia&quot;&gt;Pod&lt;/font&gt;" style="rounded=0;whiteSpace=wrap;html=1;" parent="Hjyom_inOhjRc1cQ-QSt-38" vertex="1">
          <mxGeometry x="8" y="40" width="40" height="40" as="geometry" />
        </mxCell>
        <mxCell id="Hjyom_inOhjRc1cQ-QSt-46" value="&lt;font style=&quot;font-size: 11px&quot; face=&quot;Georgia&quot;&gt;Loaded ConfigMaps&lt;/font&gt;" style="rounded=0;whiteSpace=wrap;html=1;" parent="H5iH1nIsgHst9_0Ml_5E-1" vertex="1">
          <mxGeometry x="372" y="464" width="150" height="20" as="geometry" />
        </mxCell>
        <mxCell id="Hjyom_inOhjRc1cQ-QSt-48" style="edgeStyle=orthogonalEdgeStyle;rounded=0;orthogonalLoop=1;jettySize=auto;html=1;exitX=1;exitY=0.5;exitDx=0;exitDy=0;entryX=0.5;entryY=1;entryDx=0;entryDy=0;startArrow=none;startFill=0;curved=1;" parent="H5iH1nIsgHst9_0Ml_5E-1" source="Hjyom_inOhjRc1cQ-QSt-47" target="Hjyom_inOhjRc1cQ-QSt-17" edge="1">
          <mxGeometry relative="1" as="geometry">
            <Array as="points">
              <mxPoint x="323" y="370" />
              <mxPoint x="407" y="370" />
            </Array>
          </mxGeometry>
        </mxCell>
        <mxCell id="Hjyom_inOhjRc1cQ-QSt-49" style="edgeStyle=orthogonalEdgeStyle;curved=1;rounded=0;orthogonalLoop=1;jettySize=auto;html=1;exitX=1;exitY=0.5;exitDx=0;exitDy=0;entryX=0.5;entryY=1;entryDx=0;entryDy=0;startArrow=none;startFill=0;" parent="H5iH1nIsgHst9_0Ml_5E-1" source="Hjyom_inOhjRc1cQ-QSt-47" target="Hjyom_inOhjRc1cQ-QSt-25" edge="1">
          <mxGeometry relative="1" as="geometry">
            <Array as="points">
              <mxPoint x="323" y="370" />
              <mxPoint x="487" y="370" />
            </Array>
          </mxGeometry>
        </mxCell>
        <mxCell id="Hjyom_inOhjRc1cQ-QSt-52" style="edgeStyle=orthogonalEdgeStyle;curved=1;rounded=0;orthogonalLoop=1;jettySize=auto;html=1;exitX=1;exitY=0.5;exitDx=0;exitDy=0;entryX=0;entryY=0.5;entryDx=0;entryDy=0;startArrow=none;startFill=0;" parent="H5iH1nIsgHst9_0Ml_5E-1" source="Hjyom_inOhjRc1cQ-QSt-47" target="Hjyom_inOhjRc1cQ-QSt-32" edge="1">
          <mxGeometry relative="1" as="geometry" />
        </mxCell>
        <mxCell id="Hjyom_inOhjRc1cQ-QSt-47" value="&lt;font style=&quot;font-size: 11px&quot; face=&quot;Georgia&quot;&gt;Ingress Controller&lt;/font&gt;" style="rounded=0;whiteSpace=wrap;html=1;" parent="H5iH1nIsgHst9_0Ml_5E-1" vertex="1">
          <mxGeometry x="270" y="345" width="53" height="60" as="geometry" />
        </mxCell>
        <mxCell id="Hjyom_inOhjRc1cQ-QSt-60" style="edgeStyle=none;rounded=0;orthogonalLoop=1;jettySize=auto;html=1;entryX=0;entryY=0.5;entryDx=0;entryDy=0;startArrow=none;startFill=0;" parent="H5iH1nIsgHst9_0Ml_5E-1" source="Hjyom_inOhjRc1cQ-QSt-58" target="Hjyom_inOhjRc1cQ-QSt-47" edge="1">
          <mxGeometry relative="1" as="geometry" />
        </mxCell>
        <mxCell id="Hjyom_inOhjRc1cQ-QSt-58" value="" style="shape=actor;whiteSpace=wrap;html=1;" parent="H5iH1nIsgHst9_0Ml_5E-1" vertex="1">
          <mxGeometry x="220" y="357.5" width="23.33" height="35" as="geometry" />
        </mxCell>
      </root>
    </mxGraphModel>
  </diagram>
  <diagram id="u-7bf8RkiW-xCS1Cp8UA" name="mapek">
    <mxGraphModel dx="1235" dy="1154" grid="1" gridSize="10" guides="1" tooltips="1" connect="1" arrows="1" fold="1" page="1" pageScale="1" pageWidth="827" pageHeight="1169" math="0" shadow="0">
      <root>
        <mxCell id="Tsom6vF1oIuBqSS38IID-0" />
        <mxCell id="Tsom6vF1oIuBqSS38IID-1" parent="Tsom6vF1oIuBqSS38IID-0" />
        <mxCell id="Tsom6vF1oIuBqSS38IID-3" value="" style="rounded=0;whiteSpace=wrap;html=1;dashed=1;" parent="Tsom6vF1oIuBqSS38IID-1" vertex="1">
          <mxGeometry x="1086.5" y="550" width="273.5" height="150" as="geometry" />
        </mxCell>
        <mxCell id="Tsom6vF1oIuBqSS38IID-18" style="rounded=0;orthogonalLoop=1;jettySize=auto;html=1;exitX=0.5;exitY=0.5;exitDx=0;exitDy=0;exitPerimeter=0;entryX=0.5;entryY=0.5;entryDx=0;entryDy=0;entryPerimeter=0;startArrow=none;startFill=0;" parent="Tsom6vF1oIuBqSS38IID-1" source="Tsom6vF1oIuBqSS38IID-7" target="Tsom6vF1oIuBqSS38IID-12" edge="1">
          <mxGeometry relative="1" as="geometry" />
        </mxCell>
        <mxCell id="Tsom6vF1oIuBqSS38IID-7" value="" style="verticalLabelPosition=bottom;verticalAlign=top;html=1;shape=mxgraph.basic.orthogonal_triangle" parent="Tsom6vF1oIuBqSS38IID-1" vertex="1">
          <mxGeometry x="1100" y="590" width="90" height="90" as="geometry" />
        </mxCell>
        <mxCell id="Tsom6vF1oIuBqSS38IID-11" value="" style="verticalLabelPosition=bottom;verticalAlign=top;html=1;shape=mxgraph.basic.orthogonal_triangle;rotation=-180;flipH=0;flipV=1;" parent="Tsom6vF1oIuBqSS38IID-1" vertex="1">
          <mxGeometry x="1252" y="580" width="90" height="100" as="geometry" />
        </mxCell>
        <mxCell id="Tsom6vF1oIuBqSS38IID-19" style="edgeStyle=orthogonalEdgeStyle;curved=1;rounded=0;orthogonalLoop=1;jettySize=auto;html=1;startArrow=none;startFill=0;" parent="Tsom6vF1oIuBqSS38IID-1" source="Tsom6vF1oIuBqSS38IID-12" target="Tsom6vF1oIuBqSS38IID-13" edge="1">
          <mxGeometry relative="1" as="geometry" />
        </mxCell>
        <mxCell id="Tsom6vF1oIuBqSS38IID-12" value="" style="verticalLabelPosition=bottom;verticalAlign=top;html=1;shape=mxgraph.basic.orthogonal_triangle;flipH=1;flipV=1;" parent="Tsom6vF1oIuBqSS38IID-1" vertex="1">
          <mxGeometry x="1120" y="580" width="90" height="90" as="geometry" />
        </mxCell>
        <mxCell id="Tsom6vF1oIuBqSS38IID-20" style="rounded=0;orthogonalLoop=1;jettySize=auto;html=1;exitX=0.5;exitY=0.5;exitDx=0;exitDy=0;exitPerimeter=0;entryX=0.5;entryY=0.5;entryDx=0;entryDy=0;entryPerimeter=0;startArrow=none;startFill=0;" parent="Tsom6vF1oIuBqSS38IID-1" source="Tsom6vF1oIuBqSS38IID-13" target="Tsom6vF1oIuBqSS38IID-11" edge="1">
          <mxGeometry relative="1" as="geometry" />
        </mxCell>
        <mxCell id="Tsom6vF1oIuBqSS38IID-13" value="" style="verticalLabelPosition=bottom;verticalAlign=top;html=1;shape=mxgraph.basic.orthogonal_triangle;flipH=0;flipV=1;" parent="Tsom6vF1oIuBqSS38IID-1" vertex="1">
          <mxGeometry x="1230" y="580" width="90" height="90" as="geometry" />
        </mxCell>
        <mxCell id="Tsom6vF1oIuBqSS38IID-5" value="&lt;font style=&quot;font-size: 11px&quot; face=&quot;Georgia&quot;&gt;Knowledge&lt;/font&gt;" style="shape=trapezoid;perimeter=trapezoidPerimeter;whiteSpace=wrap;html=1;fixedSize=1;fillColor=#f5f5f5;strokeColor=#666666;fontColor=#333333;" parent="Tsom6vF1oIuBqSS38IID-1" vertex="1">
          <mxGeometry x="1160" y="650" width="120" height="40" as="geometry" />
        </mxCell>
        <mxCell id="Tsom6vF1oIuBqSS38IID-21" value="" style="ellipse;shape=cloud;whiteSpace=wrap;html=1;strokeColor=#000000;strokeWidth=1;fillColor=none;" parent="Tsom6vF1oIuBqSS38IID-1" vertex="1">
          <mxGeometry x="1100" y="700" width="240" height="100" as="geometry" />
        </mxCell>
        <mxCell id="Tsom6vF1oIuBqSS38IID-23" value="&lt;span style=&quot;color: rgb(51 , 51 , 51) ; font-family: &amp;#34;georgia&amp;#34; ; font-size: 11px ; font-style: normal ; font-weight: 400 ; letter-spacing: normal ; text-indent: 0px ; text-transform: none ; word-spacing: 0px ; display: inline ; float: none ; background-color: rgb(255 , 255 , 255)&quot;&gt;Environment&lt;/span&gt;" style="text;whiteSpace=wrap;html=1;align=center;" parent="Tsom6vF1oIuBqSS38IID-1" vertex="1">
          <mxGeometry x="1180" y="757" width="80" height="30" as="geometry" />
        </mxCell>
        <mxCell id="Tsom6vF1oIuBqSS38IID-24" value="&lt;b&gt;&lt;font face=&quot;Georgia&quot;&gt;Adaptive System&lt;/font&gt;&lt;/b&gt;" style="rounded=0;whiteSpace=wrap;html=1;strokeColor=#000000;strokeWidth=1;fillColor=none;" parent="Tsom6vF1oIuBqSS38IID-1" vertex="1">
          <mxGeometry x="1160" y="725" width="120" height="30" as="geometry" />
        </mxCell>
        <mxCell id="Tsom6vF1oIuBqSS38IID-27" value="&lt;b&gt;&lt;font face=&quot;Georgia&quot;&gt;Adaptation Manager&lt;/font&gt;&lt;/b&gt;" style="rounded=0;whiteSpace=wrap;html=1;strokeWidth=1;fillColor=none;strokeColor=none;" parent="Tsom6vF1oIuBqSS38IID-1" vertex="1">
          <mxGeometry x="1142.13" y="550" width="155.75" height="30" as="geometry" />
        </mxCell>
        <mxCell id="Tsom6vF1oIuBqSS38IID-32" style="rounded=0;orthogonalLoop=1;jettySize=auto;html=1;exitX=0.393;exitY=1.007;exitDx=0;exitDy=0;exitPerimeter=0;entryX=0.863;entryY=0.242;entryDx=0;entryDy=0;entryPerimeter=0;startArrow=none;startFill=0;" parent="Tsom6vF1oIuBqSS38IID-1" source="Tsom6vF1oIuBqSS38IID-11" target="Tsom6vF1oIuBqSS38IID-21" edge="1">
          <mxGeometry relative="1" as="geometry">
            <mxPoint x="1285" y="635" as="sourcePoint" />
            <mxPoint x="1310" y="640" as="targetPoint" />
          </mxGeometry>
        </mxCell>
        <mxCell id="Tsom6vF1oIuBqSS38IID-33" style="rounded=0;orthogonalLoop=1;jettySize=auto;html=1;exitX=0.177;exitY=0.26;exitDx=0;exitDy=0;exitPerimeter=0;entryX=0.88;entryY=0.25;entryDx=0;entryDy=0;entryPerimeter=0;startArrow=none;startFill=0;" parent="Tsom6vF1oIuBqSS38IID-1" source="Tsom6vF1oIuBqSS38IID-21" edge="1">
          <mxGeometry relative="1" as="geometry">
            <mxPoint x="1142.63" y="721.8" as="sourcePoint" />
            <mxPoint x="1142.13" y="679.9999999999998" as="targetPoint" />
          </mxGeometry>
        </mxCell>
        <mxCell id="Tsom6vF1oIuBqSS38IID-34" value="&lt;span style=&quot;color: rgb(51 , 51 , 51) ; font-family: &amp;#34;georgia&amp;#34; ; font-size: 11px ; font-style: normal ; font-weight: 400 ; letter-spacing: normal ; text-indent: 0px ; text-transform: none ; word-spacing: 0px ; display: inline ; float: none ; background-color: rgb(255 , 255 , 255)&quot;&gt;Monitor&lt;/span&gt;" style="text;whiteSpace=wrap;html=1;align=center;" parent="Tsom6vF1oIuBqSS38IID-1" vertex="1">
          <mxGeometry x="1094" y="638" width="70" height="30" as="geometry" />
        </mxCell>
        <mxCell id="Tsom6vF1oIuBqSS38IID-35" value="&lt;span style=&quot;color: rgb(51 , 51 , 51) ; font-family: &amp;#34;georgia&amp;#34; ; font-size: 11px ; font-style: normal ; font-weight: 400 ; letter-spacing: normal ; text-indent: 0px ; text-transform: none ; word-spacing: 0px ; display: inline ; float: none ; background-color: rgb(255 , 255 , 255)&quot;&gt;Analyse&lt;/span&gt;" style="text;whiteSpace=wrap;html=1;align=center;" parent="Tsom6vF1oIuBqSS38IID-1" vertex="1">
          <mxGeometry x="1150" y="600" width="70" height="30" as="geometry" />
        </mxCell>
        <mxCell id="Tsom6vF1oIuBqSS38IID-36" value="&lt;font color=&quot;#333333&quot; face=&quot;georgia&quot;&gt;&lt;span style=&quot;font-size: 11px ; background-color: rgb(255 , 255 , 255)&quot;&gt;Plan&lt;/span&gt;&lt;/font&gt;" style="text;whiteSpace=wrap;html=1;align=center;" parent="Tsom6vF1oIuBqSS38IID-1" vertex="1">
          <mxGeometry x="1220" y="600" width="70" height="30" as="geometry" />
        </mxCell>
        <mxCell id="Tsom6vF1oIuBqSS38IID-37" value="&lt;span style=&quot;color: rgb(51 , 51 , 51) ; font-family: &amp;#34;georgia&amp;#34; ; font-size: 11px ; font-style: normal ; font-weight: 400 ; letter-spacing: normal ; text-indent: 0px ; text-transform: none ; word-spacing: 0px ; display: inline ; float: none ; background-color: rgb(255 , 255 , 255)&quot;&gt;Execute&lt;/span&gt;" style="text;whiteSpace=wrap;html=1;align=center;" parent="Tsom6vF1oIuBqSS38IID-1" vertex="1">
          <mxGeometry x="1278" y="640" width="70" height="30" as="geometry" />
        </mxCell>
      </root>
    </mxGraphModel>
  </diagram>
  <diagram id="fiBQCdOVbFHhrYY9r1yh" name="loop">
    <mxGraphModel dx="2062" dy="1154" grid="1" gridSize="10" guides="1" tooltips="1" connect="1" arrows="1" fold="1" page="1" pageScale="1" pageWidth="827" pageHeight="1169" math="1" shadow="0">
      <root>
        <mxCell id="OWdgxaFw-GrTeOjskMRh-0" />
        <mxCell id="OWdgxaFw-GrTeOjskMRh-1" parent="OWdgxaFw-GrTeOjskMRh-0" />
        <mxCell id="OWdgxaFw-GrTeOjskMRh-3" value="" style="endArrow=classic;html=1;strokeWidth=3;" parent="OWdgxaFw-GrTeOjskMRh-1" edge="1">
          <mxGeometry width="50" height="50" relative="1" as="geometry">
            <mxPoint x="200" y="440" as="sourcePoint" />
            <mxPoint x="270" y="440" as="targetPoint" />
          </mxGeometry>
        </mxCell>
        <mxCell id="OWdgxaFw-GrTeOjskMRh-4" value="" style="ellipse;whiteSpace=wrap;html=1;strokeColor=#000000;strokeWidth=2;fillColor=none;" parent="OWdgxaFw-GrTeOjskMRh-1" vertex="1">
          <mxGeometry x="270" y="430" width="20" height="20" as="geometry" />
        </mxCell>
        <mxCell id="OWdgxaFw-GrTeOjskMRh-5" value="" style="endArrow=classic;html=1;strokeWidth=3;entryX=0;entryY=0.5;entryDx=0;entryDy=0;" parent="OWdgxaFw-GrTeOjskMRh-1" target="OWdgxaFw-GrTeOjskMRh-6" edge="1">
          <mxGeometry width="50" height="50" relative="1" as="geometry">
            <mxPoint x="290" y="439.66" as="sourcePoint" />
            <mxPoint x="330" y="440" as="targetPoint" />
          </mxGeometry>
        </mxCell>
        <mxCell id="OWdgxaFw-GrTeOjskMRh-8" style="edgeStyle=none;rounded=0;orthogonalLoop=1;jettySize=auto;html=1;entryX=0;entryY=0.5;entryDx=0;entryDy=0;startArrow=none;startFill=0;strokeWidth=3;" parent="OWdgxaFw-GrTeOjskMRh-1" source="OWdgxaFw-GrTeOjskMRh-6" target="OWdgxaFw-GrTeOjskMRh-7" edge="1">
          <mxGeometry relative="1" as="geometry" />
        </mxCell>
        <mxCell id="OWdgxaFw-GrTeOjskMRh-6" value="&lt;font face=&quot;Georgia&quot;&gt;Controller&lt;br&gt;&lt;i&gt;C&lt;/i&gt;&lt;/font&gt;" style="rounded=0;whiteSpace=wrap;html=1;strokeColor=#000000;strokeWidth=2;fillColor=none;" parent="OWdgxaFw-GrTeOjskMRh-1" vertex="1">
          <mxGeometry x="340" y="420" width="120" height="40" as="geometry" />
        </mxCell>
        <mxCell id="OWdgxaFw-GrTeOjskMRh-9" style="edgeStyle=none;rounded=0;orthogonalLoop=1;jettySize=auto;html=1;startArrow=none;startFill=0;strokeWidth=3;" parent="OWdgxaFw-GrTeOjskMRh-1" source="OWdgxaFw-GrTeOjskMRh-7" edge="1">
          <mxGeometry relative="1" as="geometry">
            <mxPoint x="700" y="440" as="targetPoint" />
          </mxGeometry>
        </mxCell>
        <mxCell id="OWdgxaFw-GrTeOjskMRh-7" value="&lt;font face=&quot;Georgia&quot;&gt;Plant&lt;br&gt;P&lt;br&gt;&lt;/font&gt;" style="rounded=0;whiteSpace=wrap;html=1;strokeColor=#000000;strokeWidth=2;fillColor=none;" parent="OWdgxaFw-GrTeOjskMRh-1" vertex="1">
          <mxGeometry x="520" y="420" width="120" height="40" as="geometry" />
        </mxCell>
        <mxCell id="OWdgxaFw-GrTeOjskMRh-11" value="" style="endArrow=classic;html=1;strokeWidth=3;entryX=0.5;entryY=1;entryDx=0;entryDy=0;edgeStyle=orthogonalEdgeStyle;rounded=0;" parent="OWdgxaFw-GrTeOjskMRh-1" target="OWdgxaFw-GrTeOjskMRh-4" edge="1">
          <mxGeometry width="50" height="50" relative="1" as="geometry">
            <mxPoint x="670" y="440" as="sourcePoint" />
            <mxPoint x="790.0000000000002" y="500" as="targetPoint" />
            <Array as="points">
              <mxPoint x="670" y="480" />
              <mxPoint x="280" y="480" />
            </Array>
          </mxGeometry>
        </mxCell>
        <mxCell id="OWdgxaFw-GrTeOjskMRh-12" value="$$\bar{y}(k)$$" style="text;html=1;strokeColor=none;fillColor=none;align=center;verticalAlign=middle;whiteSpace=wrap;rounded=0;fontFamily=Georgia;fontSize=11;" parent="OWdgxaFw-GrTeOjskMRh-1" vertex="1">
          <mxGeometry x="200" y="420" width="40" height="20" as="geometry" />
        </mxCell>
        <mxCell id="OWdgxaFw-GrTeOjskMRh-13" value="&lt;b&gt;$$+$$&lt;/b&gt;" style="text;html=1;strokeColor=none;fillColor=none;align=center;verticalAlign=middle;whiteSpace=wrap;rounded=0;fontFamily=Georgia;fontSize=11;" parent="OWdgxaFw-GrTeOjskMRh-1" vertex="1">
          <mxGeometry x="230" y="419" width="40" height="20" as="geometry" />
        </mxCell>
        <mxCell id="OWdgxaFw-GrTeOjskMRh-14" value="$$-$$" style="text;html=1;strokeColor=none;fillColor=none;align=center;verticalAlign=middle;whiteSpace=wrap;rounded=0;fontFamily=Georgia;fontSize=11;" parent="OWdgxaFw-GrTeOjskMRh-1" vertex="1">
          <mxGeometry x="248" y="445" width="40" height="20" as="geometry" />
        </mxCell>
        <mxCell id="OWdgxaFw-GrTeOjskMRh-16" value="$$e(k)$$" style="text;html=1;strokeColor=none;fillColor=none;align=center;verticalAlign=middle;whiteSpace=wrap;rounded=0;fontFamily=Georgia;fontSize=11;" parent="OWdgxaFw-GrTeOjskMRh-1" vertex="1">
          <mxGeometry x="293" y="420" width="40" height="20" as="geometry" />
        </mxCell>
        <mxCell id="OWdgxaFw-GrTeOjskMRh-17" value="$$u(k)$$" style="text;html=1;strokeColor=none;fillColor=none;align=center;verticalAlign=middle;whiteSpace=wrap;rounded=0;fontFamily=Georgia;fontSize=11;" parent="OWdgxaFw-GrTeOjskMRh-1" vertex="1">
          <mxGeometry x="472" y="419" width="40" height="20" as="geometry" />
        </mxCell>
        <mxCell id="OWdgxaFw-GrTeOjskMRh-19" value="$$y(k)$$" style="text;html=1;strokeColor=none;fillColor=none;align=center;verticalAlign=middle;whiteSpace=wrap;rounded=0;fontFamily=Georgia;fontSize=11;" parent="OWdgxaFw-GrTeOjskMRh-1" vertex="1">
          <mxGeometry x="650" y="419" width="40" height="20" as="geometry" />
        </mxCell>
        <mxCell id="OWdgxaFw-GrTeOjskMRh-20" style="edgeStyle=none;rounded=0;orthogonalLoop=1;jettySize=auto;html=1;entryX=0.5;entryY=0;entryDx=0;entryDy=0;startArrow=none;startFill=0;strokeWidth=3;" parent="OWdgxaFw-GrTeOjskMRh-1" target="OWdgxaFw-GrTeOjskMRh-7" edge="1">
          <mxGeometry relative="1" as="geometry">
            <mxPoint x="580" y="380" as="sourcePoint" />
            <mxPoint x="610.0000000000002" y="370" as="targetPoint" />
          </mxGeometry>
        </mxCell>
        <mxCell id="OWdgxaFw-GrTeOjskMRh-21" value="$$d(k)$$" style="text;html=1;strokeColor=none;fillColor=none;align=center;verticalAlign=middle;whiteSpace=wrap;rounded=0;fontFamily=Georgia;fontSize=11;" parent="OWdgxaFw-GrTeOjskMRh-1" vertex="1">
          <mxGeometry x="579" y="382" width="40" height="20" as="geometry" />
        </mxCell>
      </root>
    </mxGraphModel>
  </diagram>
  <diagram id="CYYX2ewzx6zUcvJYmEls" name="presentation">
    <mxGraphModel dx="982" dy="522" grid="1" gridSize="10" guides="1" tooltips="1" connect="1" arrows="1" fold="1" page="1" pageScale="1" pageWidth="827" pageHeight="1169" math="0" shadow="0">
      <root>
        <mxCell id="7aPN28nQXCLUSpHTmHcB-0" />
        <mxCell id="7aPN28nQXCLUSpHTmHcB-1" parent="7aPN28nQXCLUSpHTmHcB-0" />
        <mxCell id="2o-Hqh2gP0JvE7SbUwDj-2" style="rounded=0;orthogonalLoop=1;jettySize=auto;html=1;exitX=0.75;exitY=1;exitDx=0;exitDy=0;entryX=0.5;entryY=0;entryDx=0;entryDy=0;" parent="7aPN28nQXCLUSpHTmHcB-1" source="7aPN28nQXCLUSpHTmHcB-2" target="2o-Hqh2gP0JvE7SbUwDj-1" edge="1">
          <mxGeometry relative="1" as="geometry" />
        </mxCell>
        <mxCell id="7aPN28nQXCLUSpHTmHcB-2" value="" style="shape=actor;whiteSpace=wrap;html=1;" parent="7aPN28nQXCLUSpHTmHcB-1" vertex="1">
          <mxGeometry x="218" y="350" width="23.33" height="35" as="geometry" />
        </mxCell>
        <mxCell id="7aPN28nQXCLUSpHTmHcB-3" value="" style="endArrow=classic;html=1;exitX=0.25;exitY=1;exitDx=0;exitDy=0;entryX=0.5;entryY=0;entryDx=0;entryDy=0;" parent="7aPN28nQXCLUSpHTmHcB-1" source="7aPN28nQXCLUSpHTmHcB-2" target="2o-Hqh2gP0JvE7SbUwDj-0" edge="1">
          <mxGeometry width="50" height="50" relative="1" as="geometry">
            <mxPoint x="230" y="400" as="sourcePoint" />
            <mxPoint x="190" y="445" as="targetPoint" />
          </mxGeometry>
        </mxCell>
        <mxCell id="2o-Hqh2gP0JvE7SbUwDj-0" value="&lt;font face=&quot;Georgia&quot; style=&quot;font-size: 11px&quot;&gt;Control group (main) component weightings&lt;/font&gt;" style="rounded=0;whiteSpace=wrap;html=1;fillColor=#f5f5f5;strokeColor=#666666;fontColor=#333333;" parent="7aPN28nQXCLUSpHTmHcB-1" vertex="1">
          <mxGeometry x="150" y="440" width="70" height="80" as="geometry" />
        </mxCell>
        <mxCell id="2o-Hqh2gP0JvE7SbUwDj-1" value="&lt;font face=&quot;Georgia&quot; style=&quot;font-size: 11px&quot;&gt;Candidate group (sampled) component weightings&lt;/font&gt;" style="rounded=0;whiteSpace=wrap;html=1;fillColor=#f5f5f5;strokeColor=#666666;fontColor=#333333;" parent="7aPN28nQXCLUSpHTmHcB-1" vertex="1">
          <mxGeometry x="240" y="440" width="70" height="80" as="geometry" />
        </mxCell>
        <mxCell id="2o-Hqh2gP0JvE7SbUwDj-5" value="&lt;font style=&quot;font-size: 9px&quot; face=&quot;Georgia&quot;&gt;p=0.95&lt;/font&gt;" style="edgeLabel;html=1;align=center;verticalAlign=middle;resizable=0;points=[];" parent="7aPN28nQXCLUSpHTmHcB-1" vertex="1" connectable="0">
          <mxGeometry x="210.00471471515507" y="399.99584158177896" as="geometry" />
        </mxCell>
        <mxCell id="2o-Hqh2gP0JvE7SbUwDj-7" value="&lt;font style=&quot;font-size: 9px&quot; face=&quot;Georgia&quot;&gt;p=0.05&lt;/font&gt;" style="edgeLabel;html=1;align=center;verticalAlign=middle;resizable=0;points=[];" parent="7aPN28nQXCLUSpHTmHcB-1" vertex="1" connectable="0">
          <mxGeometry x="247.00471471515507" y="399.99584158177896" as="geometry" />
        </mxCell>
        <mxCell id="A_NdbmDPXkTQQS_Ob5Im-5" style="edgeStyle=orthogonalEdgeStyle;rounded=0;orthogonalLoop=1;jettySize=auto;html=1;entryX=0.5;entryY=0;entryDx=0;entryDy=0;" edge="1" parent="7aPN28nQXCLUSpHTmHcB-1" source="A_NdbmDPXkTQQS_Ob5Im-0" target="A_NdbmDPXkTQQS_Ob5Im-4">
          <mxGeometry relative="1" as="geometry" />
        </mxCell>
        <mxCell id="A_NdbmDPXkTQQS_Ob5Im-0" value="" style="shape=actor;whiteSpace=wrap;html=1;" vertex="1" parent="7aPN28nQXCLUSpHTmHcB-1">
          <mxGeometry x="249.64" y="610" width="23.33" height="35" as="geometry" />
        </mxCell>
        <mxCell id="A_NdbmDPXkTQQS_Ob5Im-1" value="" style="points=[];aspect=fixed;html=1;align=center;shadow=0;dashed=0;image;image=img/lib/allied_telesis/computer_and_terminals/Server_Desktop.svg;" vertex="1" parent="7aPN28nQXCLUSpHTmHcB-1">
          <mxGeometry x="163.7" y="760" width="42.599999999999994" height="54" as="geometry" />
        </mxCell>
        <mxCell id="A_NdbmDPXkTQQS_Ob5Im-2" value="" style="points=[];aspect=fixed;html=1;align=center;shadow=0;dashed=0;image;image=img/lib/allied_telesis/computer_and_terminals/Server_Desktop.svg;" vertex="1" parent="7aPN28nQXCLUSpHTmHcB-1">
          <mxGeometry x="240" y="760" width="42.599999999999994" height="54" as="geometry" />
        </mxCell>
        <mxCell id="A_NdbmDPXkTQQS_Ob5Im-3" value="" style="points=[];aspect=fixed;html=1;align=center;shadow=0;dashed=0;image;image=img/lib/allied_telesis/computer_and_terminals/Server_Desktop.svg;" vertex="1" parent="7aPN28nQXCLUSpHTmHcB-1">
          <mxGeometry x="310" y="760" width="42.599999999999994" height="54" as="geometry" />
        </mxCell>
        <mxCell id="A_NdbmDPXkTQQS_Ob5Im-6" style="rounded=0;orthogonalLoop=1;jettySize=auto;html=1;exitX=0.5;exitY=1;exitDx=0;exitDy=0;" edge="1" parent="7aPN28nQXCLUSpHTmHcB-1" source="A_NdbmDPXkTQQS_Ob5Im-4" target="A_NdbmDPXkTQQS_Ob5Im-1">
          <mxGeometry relative="1" as="geometry" />
        </mxCell>
        <mxCell id="A_NdbmDPXkTQQS_Ob5Im-7" style="edgeStyle=none;rounded=0;orthogonalLoop=1;jettySize=auto;html=1;exitX=0.5;exitY=1;exitDx=0;exitDy=0;entryX=0.501;entryY=0.185;entryDx=0;entryDy=0;entryPerimeter=0;" edge="1" parent="7aPN28nQXCLUSpHTmHcB-1" source="A_NdbmDPXkTQQS_Ob5Im-4" target="A_NdbmDPXkTQQS_Ob5Im-2">
          <mxGeometry relative="1" as="geometry" />
        </mxCell>
        <mxCell id="A_NdbmDPXkTQQS_Ob5Im-8" style="edgeStyle=none;rounded=0;orthogonalLoop=1;jettySize=auto;html=1;exitX=0.5;exitY=1;exitDx=0;exitDy=0;" edge="1" parent="7aPN28nQXCLUSpHTmHcB-1" source="A_NdbmDPXkTQQS_Ob5Im-4" target="A_NdbmDPXkTQQS_Ob5Im-3">
          <mxGeometry relative="1" as="geometry" />
        </mxCell>
        <mxCell id="A_NdbmDPXkTQQS_Ob5Im-4" value="&lt;font style=&quot;font-size: 11px&quot; face=&quot;Georgia&quot;&gt;Load Balancer&lt;/font&gt;" style="rounded=0;whiteSpace=wrap;html=1;" vertex="1" parent="7aPN28nQXCLUSpHTmHcB-1">
          <mxGeometry x="201.3" y="690" width="120" height="30" as="geometry" />
        </mxCell>
        <mxCell id="EL4x3BYOJ8Tv1WZS_2dT-0" style="edgeStyle=orthogonalEdgeStyle;rounded=0;orthogonalLoop=1;jettySize=auto;html=1;entryX=0.5;entryY=0;entryDx=0;entryDy=0;" edge="1" parent="7aPN28nQXCLUSpHTmHcB-1" source="EL4x3BYOJ8Tv1WZS_2dT-1" target="EL4x3BYOJ8Tv1WZS_2dT-8">
          <mxGeometry relative="1" as="geometry" />
        </mxCell>
        <mxCell id="EL4x3BYOJ8Tv1WZS_2dT-1" value="" style="shape=actor;whiteSpace=wrap;html=1;" vertex="1" parent="7aPN28nQXCLUSpHTmHcB-1">
          <mxGeometry x="545.94" y="603" width="23.33" height="35" as="geometry" />
        </mxCell>
        <mxCell id="EL4x3BYOJ8Tv1WZS_2dT-5" style="rounded=0;orthogonalLoop=1;jettySize=auto;html=1;exitX=0.5;exitY=1;exitDx=0;exitDy=0;entryX=0.5;entryY=0;entryDx=0;entryDy=0;" edge="1" parent="7aPN28nQXCLUSpHTmHcB-1" source="EL4x3BYOJ8Tv1WZS_2dT-8" target="EL4x3BYOJ8Tv1WZS_2dT-9">
          <mxGeometry relative="1" as="geometry">
            <mxPoint x="502.60000000000014" y="761.2961992136304" as="targetPoint" />
          </mxGeometry>
        </mxCell>
        <mxCell id="EL4x3BYOJ8Tv1WZS_2dT-6" style="edgeStyle=none;rounded=0;orthogonalLoop=1;jettySize=auto;html=1;exitX=0.5;exitY=1;exitDx=0;exitDy=0;entryX=0.5;entryY=0;entryDx=0;entryDy=0;" edge="1" parent="7aPN28nQXCLUSpHTmHcB-1" source="EL4x3BYOJ8Tv1WZS_2dT-8" target="EL4x3BYOJ8Tv1WZS_2dT-10">
          <mxGeometry relative="1" as="geometry">
            <mxPoint x="557.6425999999999" y="762.99" as="targetPoint" />
          </mxGeometry>
        </mxCell>
        <mxCell id="EL4x3BYOJ8Tv1WZS_2dT-8" value="&lt;font style=&quot;font-size: 11px&quot; face=&quot;Georgia&quot;&gt;Load Balancer&lt;/font&gt;" style="rounded=0;whiteSpace=wrap;html=1;" vertex="1" parent="7aPN28nQXCLUSpHTmHcB-1">
          <mxGeometry x="497.6" y="683" width="120" height="30" as="geometry" />
        </mxCell>
        <mxCell id="EL4x3BYOJ8Tv1WZS_2dT-9" value="&lt;font face=&quot;Georgia&quot; style=&quot;font-size: 11px&quot;&gt;Node 1&lt;/font&gt;" style="rounded=0;whiteSpace=wrap;html=1;" vertex="1" parent="7aPN28nQXCLUSpHTmHcB-1">
          <mxGeometry x="450" y="762" width="64.06" height="60" as="geometry" />
        </mxCell>
        <mxCell id="EL4x3BYOJ8Tv1WZS_2dT-10" value="&lt;font face=&quot;Georgia&quot; style=&quot;font-size: 11px&quot;&gt;Node 2&lt;/font&gt;" style="rounded=0;whiteSpace=wrap;html=1;" vertex="1" parent="7aPN28nQXCLUSpHTmHcB-1">
          <mxGeometry x="525.58" y="762" width="64.06" height="60" as="geometry" />
        </mxCell>
        <mxCell id="EL4x3BYOJ8Tv1WZS_2dT-11" value="" style="rounded=0;whiteSpace=wrap;html=1;dashed=1;" vertex="1" parent="7aPN28nQXCLUSpHTmHcB-1">
          <mxGeometry x="607.6" y="752" width="64.06" height="60" as="geometry" />
        </mxCell>
        <mxCell id="EL4x3BYOJ8Tv1WZS_2dT-12" value="&lt;font face=&quot;Georgia&quot; style=&quot;font-size: 11px&quot;&gt;Spare Nodes (Inactive)&lt;/font&gt;" style="rounded=0;whiteSpace=wrap;html=1;dashed=1;" vertex="1" parent="7aPN28nQXCLUSpHTmHcB-1">
          <mxGeometry x="600" y="762" width="64.06" height="60" as="geometry" />
        </mxCell>
        <mxCell id="EL4x3BYOJ8Tv1WZS_2dT-13" style="edgeStyle=none;rounded=0;orthogonalLoop=1;jettySize=auto;html=1;exitX=0.5;exitY=1;exitDx=0;exitDy=0;entryX=0.5;entryY=0;entryDx=0;entryDy=0;dashed=1;" edge="1" parent="7aPN28nQXCLUSpHTmHcB-1" source="EL4x3BYOJ8Tv1WZS_2dT-8" target="EL4x3BYOJ8Tv1WZS_2dT-12">
          <mxGeometry relative="1" as="geometry" />
        </mxCell>
      </root>
    </mxGraphModel>
  </diagram>
</mxfile>
